<svg id="Layer_1" data-name="Layer 1" xmlns="http://www.w3.org/2000/svg" viewBox="0 0 512 512"><path d="M189.8,324.3v8.6a23.4,23.4,0,0,1-23.6,23.4h-15a6.1,6.1,0,0,1-6.1-6.2l.3-83.3a6.1,6.1,0,0,1,6.1-6.1H165a23.5,23.5,0,0,1,23.4,23.6v5.2a22.9,22.9,0,0,1-7.1,16.7A23.7,23.7,0,0,1,189.8,324.3Zm-32.4-23.6h7.4a11.4,11.4,0,0,0,11.4-11.2v-5.2a11.4,11.4,0,0,0-11.3-11.4h-7.4Zm20.1,23.6A11.3,11.3,0,0,0,166.3,313h-9v31.2h9a11.3,11.3,0,0,0,11.3-11.2Z"/><path d="M247.3,267.1l-.3,67.8a21.8,21.8,0,1,1-43.5-.1l.2-67.8a6.2,6.2,0,0,1,12.3,0l-.3,67.8a9.6,9.6,0,0,0,19.1.1l.2-67.8a6.2,6.2,0,0,1,12.3,0Z"/><path d="M296.6,350.7a6.1,6.1,0,0,1-6.1,6.1H266.9a6.2,6.2,0,0,1-6.1-6.2l.3-83.4a6.1,6.1,0,1,1,12.2.1l-.3,77.2h17.5A6.1,6.1,0,0,1,296.6,350.7Z"/><path d="M347.8,355.5a5.8,5.8,0,0,1-2.8.7,6.2,6.2,0,0,1-5.5-3.3l-16.8-32.8v30.7a6.2,6.2,0,0,1-12.3,0l.3-83.4a6.2,6.2,0,0,1,6.2-6.1,6.1,6.1,0,0,1,6.1,6.2v30.6l17-33.3a6.3,6.3,0,0,1,8.3-2.7,6,6,0,0,1,2.6,8.2l-19.9,38.9,19.6,38.1A6,6,0,0,1,347.8,355.5Z"/><path d="M329.4,138.6l-26,105.1a7.6,7.6,0,0,1-7.5,5.8h-.1a7.7,7.7,0,0,1-7.4-6l-11.2-50.6-12.6,50.8a7.7,7.7,0,0,1-15-.2l-23.3-105a7.7,7.7,0,1,1,15-3.4l16.2,73,12.6-50.7a7.6,7.6,0,0,1,7.5-5.9,7.7,7.7,0,0,1,7.5,6l11.2,50.6,18.1-73.2a7.7,7.7,0,0,1,15,3.7Z"/><path d="M377.7,160.2v-3.7a12,12,0,0,0-24,0c0,7.2,10.1,20.3,17.3,27.3,3.7,3.6,22.1,22.2,22.1,38.3a27.4,27.4,0,0,1-54.8,0v-3.6a7.7,7.7,0,0,1,15.4,0v3.6a12,12,0,0,0,24,0c0-7.1-10.2-20.2-17.4-27.3-3.7-3.5-22-22.1-22-38.3a27.4,27.4,0,0,1,54.8,0v3.7a7.7,7.7,0,0,1-15.4,0Z"/><path d="M218.1,174.2a93.7,93.7,0,0,1-7.6,27.6,73.3,73.3,0,0,1-12.5,19c-11.2,12-28.6,20.5-55.5,16.4l-3.8,12.2h-5.1a72.7,72.7,0,0,1,14.3-28.3,58.1,58.1,0,0,1,33.8-20.3A54.6,54.6,0,0,0,151,212.4a56.9,56.9,0,0,0-12.8,14.4,37.9,37.9,0,0,1,18.5-30,47.7,47.7,0,0,1,9.6-4.4s8.9-2.1,19.5-5.1c5.7-1.7,11.9-3.6,17.3-5.6C210.1,179.2,216,176.5,218.1,174.2Z"/><path d="M218.1,174.2a93.7,93.7,0,0,1-7.6,27.6,73.3,73.3,0,0,1-12.5,19c-11.2,12-28.6,20.5-55.5,16.4l-3.8,12.2h-5.1a72.7,72.7,0,0,1,14.3-28.3,58.1,58.1,0,0,1,33.8-20.3A54.6,54.6,0,0,0,151,212.4a56.9,56.9,0,0,0-12.8,14.4,37.9,37.9,0,0,1,18.5-30,47.7,47.7,0,0,1,9.6-4.4s8.9-2.1,19.5-5.1c5.7-1.7,11.9-3.6,17.3-5.6C210.1,179.2,216,176.5,218.1,174.2Z"/><path d="M133.6,249.4a72.7,72.7,0,0,1,14.3-28.3l-10.3,28.3Z"/><path d="M156.7,196.8,151,212.4a56.9,56.9,0,0,0-12.8,14.4A37.9,37.9,0,0,1,156.7,196.8Z"/><path d="M201.5,177.3c-5,1.8-11,3.7-17.4,5.5l-11.2-30.7-13.8,38.1c-19.9,9.1-25.6,27.5-25.7,36.6a5,5,0,0,0,2.2,4.1,71.4,71.4,0,0,0-6.6,17.5,2.2,2.2,0,0,0-.1,1.1h-10l54-150.7Z"/><path d="M210.5,201.8a73.3,73.3,0,0,1-12.5,19l-12.2-33.5c5.7-1.7,11.9-3.6,17.3-5.6Z"/><path d="M227.9,249.5H208.5l-8.7-23.8a68.8,68.8,0,0,0,12.8-17.9Z"/><path d="M95.8,339.6c19.6,12.8,141.1,85.3,288.8,28.9a1.7,1.7,0,0,1,1.2-.1c1.5.5,4.9,2,4.2,6.9s-161.1,100-296.5-32.7a2,2,0,0,1-.6-1.5h0A1.9,1.9,0,0,1,95.8,339.6Z"/><path d="M356.4,354.8a2.1,2.1,0,0,0-1.1,1.9c.1.7.4,1.3,1.7,1s29-3.4,40.3,1.5l1.1.4a5.2,5.2,0,0,1,2.7,2.3,5.5,5.5,0,0,1,.9,3c.1,4.1-.7,17.8-12.9,39a1.1,1.1,0,0,0,.2,1.3c.4.3.9.3,1.7,0l.5-.3A71.2,71.2,0,0,0,410.6,383a72.6,72.6,0,0,0,8.4-25,9.2,9.2,0,0,0-6.4-10.2,59.9,59.9,0,0,0-12.4-2.7C379.7,342.8,363.5,350.7,356.4,354.8Z"/></svg>